<svg width="72" height="122" viewBox="0 0 72 122" fill="none" xmlns="http://www.w3.org/2000/svg">
<path d="M20.9961 34.939H35.8875C39.5359 34.939 44.3011 34.939 46.7582 36.4257C49.4386 38.0611 51.5979 40.9603 51.5979 44.9746C51.5979 49.3605 49.2897 52.6313 45.4924 54.1181V54.2668C50.5555 55.3075 53.3104 59.0987 53.3104 64.1537C53.3104 70.175 48.9919 75.899 40.8761 75.899H20.9961V34.939ZM26.5059 52.557H37.4511C43.631 52.557 46.1625 50.3269 46.1625 46.0153C46.1625 40.3656 42.1419 39.5479 37.4511 39.5479H26.5059V52.557ZM26.5059 71.2901H40.206C44.8968 71.2901 47.875 68.3909 47.875 63.9307C47.875 58.5783 43.5565 57.0916 38.9402 57.0916H26.5059V71.2901Z" fill="#F5F3EB"/>
<path d="M67.2343 55.4564C67.2343 72.6284 53.2364 86.6038 36.0369 86.6038C18.8374 86.6038 4.83946 72.6284 4.83946 55.4564C4.83946 38.2844 18.8374 24.3089 36.0369 24.3089C53.3109 24.3089 67.2343 38.21 67.2343 55.4564ZM36.0369 19.5513C16.1569 19.5513 0.0742188 35.6082 0.0742188 55.4564C0.0742188 75.3045 16.1569 91.3615 36.0369 91.3615C55.9169 91.3615 71.9996 75.3045 71.9996 55.4564C71.9996 35.6082 55.9169 19.5513 36.0369 19.5513Z" fill="#F5F3EB"/>
<path d="M71.9247 98.8677H0.222656V103.551H71.9247V98.8677Z" fill="#F5F3EB"/>
<path d="M69.6921 93.6647C69.7666 93.6647 69.841 93.6647 69.9155 93.6647C69.99 93.6647 70.0644 93.6647 70.1389 93.5904C70.2133 93.5904 70.2878 93.516 70.2878 93.4417C70.3622 93.3673 70.3622 93.293 70.3622 93.2187C70.3622 93.1443 70.3622 93.07 70.2878 92.9957C70.2878 92.9213 70.2133 92.9213 70.1389 92.847C70.0644 92.847 70.0644 92.7727 69.99 92.7727C69.9155 92.7727 69.841 92.7727 69.7666 92.7727H69.2454V93.5904H69.6921V93.6647ZM69.841 92.5496C70.1389 92.5496 70.3622 92.624 70.5112 92.6983C70.6601 92.847 70.7345 92.9957 70.7345 93.2187C70.7345 93.4417 70.6601 93.5904 70.5112 93.739C70.3622 93.8134 70.2133 93.8877 70.0644 93.9621L70.809 95.0771H70.3622L69.6921 94.0364H69.2454V95.0771H68.8731V92.5496H69.841ZM68.0541 94.5567C68.1285 94.7798 68.2774 95.0028 68.4264 95.1514C68.5753 95.3001 68.7986 95.4488 69.022 95.5231C69.2454 95.5975 69.4688 95.6718 69.6921 95.6718C69.9155 95.6718 70.2133 95.5975 70.3622 95.5231C70.5856 95.4488 70.7345 95.3001 70.9579 95.1514C71.1068 95.0028 71.2557 94.7798 71.3302 94.5567C71.4046 94.3337 71.4791 94.1107 71.4791 93.8134C71.4791 93.516 71.4046 93.293 71.3302 93.07C71.2557 92.847 71.1068 92.624 70.9579 92.4753C70.809 92.3266 70.5856 92.178 70.3622 92.1036C70.1389 92.0293 69.9155 91.9549 69.6921 91.9549C69.4688 91.9549 69.1709 92.0293 69.022 92.1036C68.7986 92.178 68.6497 92.3266 68.4264 92.4753C68.2774 92.624 68.1285 92.847 68.0541 93.07C67.9796 93.293 67.9052 93.516 67.9052 93.8134C67.9796 94.0364 67.9796 94.3337 68.0541 94.5567ZM67.7562 92.9957C67.9052 92.7727 68.0541 92.5496 68.203 92.3266C68.4264 92.1036 68.6497 91.9549 68.8731 91.8806C69.0965 91.8063 69.3943 91.7319 69.6921 91.7319C69.99 91.7319 70.2878 91.8063 70.5112 91.8806C70.7345 92.0293 70.9579 92.1036 71.1813 92.3266C71.4046 92.5496 71.5536 92.7727 71.628 92.9957C71.7769 93.293 71.7769 93.516 71.7769 93.8134C71.7769 94.1107 71.7025 94.4081 71.628 94.6311C71.5536 94.9284 71.3302 95.1514 71.1813 95.3001C70.9579 95.5231 70.7345 95.6718 70.5112 95.7461C70.2133 95.8205 69.99 95.8948 69.6921 95.8948C69.3943 95.8948 69.0965 95.8205 68.8731 95.7461C68.5753 95.6718 68.3519 95.5231 68.203 95.3001C67.9796 95.0771 67.8307 94.8541 67.7562 94.6311C67.6073 94.4081 67.6073 94.1107 67.6073 93.8134C67.5329 93.516 67.6073 93.2187 67.7562 92.9957Z" fill="#F5F3EB"/>
<path d="M8.86037 3.79122C8.71146 3.49387 8.48809 3.27086 8.19026 3.04785C7.96689 2.82483 7.66906 2.67616 7.29678 2.60182C7.07341 2.45314 6.70112 2.37881 6.40329 2.37881C5.73318 2.37881 5.21198 2.52748 4.76524 2.75049C4.3185 3.04785 3.94622 3.3452 3.64839 3.79122C3.35056 4.16291 3.20165 4.68327 3.05273 5.20364C2.90382 5.724 2.82936 6.24437 2.82936 6.83907C2.82936 7.35943 2.90382 7.8798 3.05273 8.40016C3.20165 8.92052 3.35056 9.36655 3.64839 9.81258C3.94622 10.2586 4.3185 10.556 4.76524 10.779C5.21198 11.0763 5.73318 11.1507 6.40329 11.1507C7.29678 11.1507 7.96689 10.8533 8.41363 10.3329C8.93483 9.81258 9.23266 9.0692 9.30711 8.25148H12.062C11.9876 9.0692 11.8386 9.81258 11.4664 10.4816C11.1685 11.1507 10.7963 11.671 10.2751 12.117C9.75386 12.5631 9.23266 12.9348 8.56254 13.1578C7.89243 13.3808 7.14786 13.5295 6.32884 13.5295C5.3609 13.5295 4.46741 13.3808 3.72285 13.0091C2.90382 12.6374 2.23371 12.1914 1.71251 11.5967C1.19131 11.002 0.744569 10.2586 0.446741 9.44089C0.148914 8.69751 0 7.80546 0 6.83907C0 5.87268 0.148914 4.98063 0.446741 4.16291C0.744569 3.3452 1.19131 2.60182 1.71251 2.00712C2.23371 1.33808 2.90382 0.892052 3.72285 0.520364C4.46741 0.148675 5.3609 0 6.40329 0C7.14786 0 7.81798 0.0743377 8.41363 0.297351C9.08374 0.520364 9.60494 0.817715 10.1261 1.1894C10.6473 1.56109 11.0196 2.08146 11.3919 2.67616C11.6897 3.27086 11.9131 3.9399 11.9876 4.68328H9.23266C9.1582 4.31159 9.08374 4.01424 8.86037 3.79122Z" fill="#F5F3EB"/>
<path d="M15.7839 11.0016C16.1562 11.3733 16.7519 11.5963 17.422 11.5963C17.9432 11.5963 18.3899 11.4476 18.7622 11.2246C19.1345 11.0016 19.3578 10.7042 19.4323 10.4069H21.7405C21.3682 11.5219 20.847 12.3396 20.1024 12.7857C19.3578 13.306 18.4644 13.529 17.3475 13.529C16.6029 13.529 15.9328 13.3804 15.3372 13.1574C14.7415 12.9343 14.2203 12.5627 13.848 12.1166C13.4013 11.6706 13.1035 11.1502 12.8801 10.5555C12.6567 9.9608 12.5078 9.29176 12.5078 8.54838C12.5078 7.87934 12.6567 7.2103 12.8801 6.6156C13.1035 6.0209 13.4013 5.50054 13.848 5.05451C14.2948 4.60848 14.7415 4.2368 15.3372 4.01378C15.9328 3.79077 16.6029 3.64209 17.2731 3.64209C18.0921 3.64209 18.7622 3.79077 19.3578 4.08812C19.9535 4.38547 20.4747 4.8315 20.847 5.35186C21.2193 5.87222 21.5171 6.46693 21.666 7.13597C21.8149 7.80501 21.8894 8.47404 21.8149 9.21742H15.0393C15.1883 10.0352 15.4116 10.6299 15.7839 11.0016ZM18.6877 6.09524C18.3899 5.72355 17.9432 5.57487 17.2731 5.57487C16.8263 5.57487 16.5285 5.64921 16.2307 5.79789C16.0073 5.94656 15.7839 6.09524 15.635 6.31825C15.4861 6.54126 15.3372 6.76428 15.2627 6.98729C15.1883 7.2103 15.1883 7.43332 15.1138 7.58199H19.3578C19.2089 6.91295 19.06 6.39259 18.6877 6.09524Z" fill="#F5F3EB"/>
<path d="M25.5391 3.86571V5.57548C25.688 5.27813 25.8369 4.98078 26.0603 4.75776C26.2837 4.53475 26.5071 4.31174 26.8049 4.08872C27.1027 3.94005 27.3261 3.79137 27.6239 3.71703C27.9217 3.6427 28.2196 3.56836 28.5918 3.56836C28.7408 3.56836 28.9641 3.56836 29.1875 3.6427V6.0215C29.0386 6.0215 28.8897 5.94717 28.7408 5.94717C28.5918 5.94717 28.4429 5.94717 28.2196 5.94717C27.7728 5.94717 27.3261 6.0215 27.0282 6.17018C26.7304 6.31885 26.4326 6.54187 26.2092 6.83922C25.9859 7.13657 25.8369 7.43392 25.7625 7.80561C25.688 8.1773 25.6136 8.54899 25.6136 8.99501V13.2323H23.082V3.86571H25.5391Z" fill="#F5F3EB"/>
<path d="M36.0386 3.86585V5.57561H34.1772V10.1846C34.1772 10.6306 34.2516 10.9279 34.4005 11.0766C34.5494 11.2253 34.8473 11.2996 35.294 11.2996C35.4429 11.2996 35.5918 11.2996 35.7408 11.2996C35.8897 11.2996 35.9641 11.2996 36.113 11.2253V13.2324C35.8897 13.2324 35.6663 13.3067 35.3685 13.3067C35.0706 13.3067 34.8473 13.3067 34.6239 13.3067C34.2516 13.3067 33.8793 13.3067 33.5071 13.2324C33.1348 13.1581 32.8369 13.0837 32.5391 12.935C32.2413 12.7864 32.0179 12.5634 31.869 12.266C31.7201 11.9687 31.6456 11.597 31.6456 11.1509V5.57561H30.082V3.86585H31.6456V1.04102H34.2516V3.86585H36.0386Z" fill="#F5F3EB"/>
<path d="M37.5273 2.45413V0.29834H40.1333V2.45413H37.5273ZM40.1333 3.86654V13.2331H37.5273V3.86654H40.1333Z" fill="#F5F3EB"/>
<path d="M41.1758 5.57595V3.86618H42.7394V3.1228C42.7394 2.30509 42.9627 1.63605 43.4839 1.04135C44.0051 0.520984 44.8242 0.223633 45.8666 0.223633C46.0899 0.223633 46.3133 0.223633 46.5367 0.223633C46.76 0.223633 46.9834 0.223633 47.2068 0.297971V2.23075C46.909 2.23075 46.6111 2.23075 46.2388 2.23075C45.8666 2.23075 45.6432 2.30509 45.4943 2.45376C45.3454 2.60244 45.2709 2.89979 45.2709 3.27148V3.86618H47.0579V5.57595H45.2709V13.2327H42.6649V5.57595H41.1758Z" fill="#F5F3EB"/>
<path d="M48.844 2.45413V0.29834H51.3755V2.45413H48.844ZM51.3755 3.86654V13.2331H48.7695V3.86654H51.3755Z" fill="#F5F3EB"/>
<path d="M55.4717 11.0016C55.8439 11.3733 56.4396 11.5963 57.1097 11.5963C57.6309 11.5963 58.0776 11.4476 58.4499 11.2246C58.8222 11.0016 59.0456 10.7042 59.12 10.4069H61.3537C60.9815 11.5219 60.4603 12.3396 59.7157 12.7857C58.9711 13.306 58.0776 13.529 56.9608 13.529C56.2162 13.529 55.5461 13.3804 54.9505 13.1574C54.3548 12.9343 53.8336 12.5627 53.4613 12.1166C53.0146 11.6706 52.7167 11.1502 52.4934 10.5555C52.27 9.9608 52.1211 9.29176 52.1211 8.54838C52.1211 7.87934 52.27 7.2103 52.4934 6.6156C52.7167 6.0209 53.0146 5.50054 53.4613 5.05451C53.9081 4.60848 54.3548 4.2368 54.9505 4.01378C55.5461 3.79077 56.2162 3.64209 56.8863 3.64209C57.7054 3.64209 58.3755 3.79077 58.9711 4.08812C59.5668 4.38547 60.088 4.8315 60.4603 5.35186C60.8325 5.87222 61.1304 6.46693 61.2793 7.13597C61.4282 7.80501 61.5027 8.47404 61.4282 9.21742H54.6526C54.876 10.0352 55.0994 10.6299 55.4717 11.0016ZM58.3755 6.09524C58.0776 5.72355 57.6309 5.57487 56.9608 5.57487C56.514 5.57487 56.2162 5.64921 55.9184 5.79789C55.6206 5.94656 55.3972 6.09524 55.2483 6.31825C55.0994 6.46693 55.0249 6.68994 54.9505 6.91295C54.876 7.13597 54.876 7.35898 54.8015 7.50765H58.9711C58.8967 6.91295 58.6733 6.39259 58.3755 6.09524Z" fill="#F5F3EB"/>
<path d="M69.4679 12.0437C69.1701 12.564 68.7978 12.9357 68.2766 13.1587C67.7554 13.3817 67.2342 13.5304 66.6386 13.5304C65.9685 13.5304 65.2984 13.3817 64.7772 13.1587C64.256 12.8614 63.8092 12.4897 63.4369 12.0437C63.0646 11.5976 62.8413 11.0773 62.6924 10.4082C62.5434 9.81356 62.3945 9.14452 62.3945 8.54982C62.3945 7.95512 62.469 7.28608 62.6924 6.69138C62.8413 6.09668 63.1391 5.57631 63.4369 5.13029C63.8092 4.68426 64.1815 4.31257 64.7027 4.01522C65.2239 3.71787 65.8196 3.64353 66.4897 3.64353C67.0109 3.64353 67.6065 3.79221 68.0533 4.01522C68.5745 4.23823 68.9467 4.60992 69.2446 5.05595V0.29834H71.8506V13.2331H69.3935L69.4679 12.0437ZM69.319 7.43475C69.2446 7.06307 69.0957 6.76572 68.9467 6.46836C68.7978 6.17101 68.5745 5.948 68.2766 5.79933C67.9788 5.65065 67.681 5.57631 67.2342 5.57631C66.7875 5.57631 66.4897 5.65065 66.1918 5.79933C65.894 5.948 65.6706 6.17101 65.5217 6.46836C65.3728 6.76572 65.2239 7.06307 65.1494 7.43475C65.075 7.80644 65.0005 8.17813 65.0005 8.54982C65.0005 8.92151 65.075 9.2932 65.1494 9.66489C65.2239 10.0365 65.3728 10.3339 65.5217 10.6312C65.7451 10.9286 65.9685 11.1516 66.2663 11.3003C66.5641 11.449 66.8619 11.5976 67.3087 11.5976C67.7554 11.5976 68.0533 11.5233 68.3511 11.3746C68.6489 11.2259 68.8723 11.0029 69.0212 10.7056C69.1701 10.4082 69.319 10.1109 69.3935 9.73922C69.4679 9.36754 69.4679 8.99585 69.4679 8.62416C69.4679 8.25247 69.3935 7.80644 69.319 7.43475Z" fill="#F5F3EB"/>
<path d="M6.47775 112.844C6.32884 111.952 5.50981 111.283 4.46741 111.283C2.68045 111.283 2.01034 112.844 2.01034 114.405C2.01034 115.892 2.68045 117.453 4.46741 117.453C5.65873 117.453 6.40329 116.635 6.55221 115.446H8.48809C8.26472 117.75 6.70112 119.163 4.46741 119.163C1.63805 119.163 0 117.081 0 114.405C0 111.729 1.63805 109.573 4.46741 109.573C6.47775 109.573 8.19026 110.762 8.41363 112.844H6.47775Z" fill="#F5F3EB"/>
<path d="M12.7336 112.102C14.8184 112.102 16.1586 113.514 16.1586 115.595C16.1586 117.677 14.8184 119.089 12.7336 119.089C10.6488 119.089 9.30859 117.677 9.30859 115.595C9.30859 113.44 10.6488 112.102 12.7336 112.102ZM12.7336 117.677C13.9994 117.677 14.3717 116.636 14.3717 115.595C14.3717 114.555 13.9994 113.44 12.7336 113.44C11.5423 113.44 11.17 114.48 11.17 115.595C11.0956 116.636 11.4678 117.677 12.7336 117.677Z" fill="#F5F3EB"/>
<path d="M17.2737 112.251H18.9862V113.44C19.284 112.623 20.1775 112.028 21.071 112.028C21.2199 112.028 21.3688 112.028 21.4433 112.102V113.812C21.2943 113.738 20.9965 113.738 20.7732 113.738C19.4329 113.738 18.9862 114.704 18.9862 115.893V118.867H17.1992V112.251H17.2737Z" fill="#F5F3EB"/>
<path d="M22.1877 112.251H23.9002V113.069C24.347 112.4 25.0171 112.028 25.8361 112.028C27.9209 112.028 28.8144 113.663 28.8144 115.596C28.8144 117.38 27.8465 119.016 25.9106 119.016C25.0916 119.016 24.347 118.644 23.9002 118.049V121.171H22.1133V112.251H22.1877ZM27.1019 115.596C27.1019 114.555 26.6552 113.44 25.5383 113.44C24.347 113.44 23.9747 114.481 23.9747 115.596C23.9747 116.637 24.347 117.678 25.5383 117.678C26.7296 117.678 27.1019 116.637 27.1019 115.596Z" fill="#F5F3EB"/>
<path d="M32.9094 112.102C34.9942 112.102 36.3344 113.514 36.3344 115.595C36.3344 117.677 34.9942 119.089 32.9094 119.089C30.8246 119.089 29.4844 117.677 29.4844 115.595C29.4844 113.44 30.8246 112.102 32.9094 112.102ZM32.9094 117.677C34.1752 117.677 34.5474 116.636 34.5474 115.595C34.5474 114.555 34.1752 113.44 32.9094 113.44C31.7181 113.44 31.3458 114.48 31.3458 115.595C31.3458 116.636 31.7181 117.677 32.9094 117.677Z" fill="#F5F3EB"/>
<path d="M37.4534 112.251H39.1659V113.44C39.4637 112.623 40.3572 112.028 41.2507 112.028C41.3996 112.028 41.5485 112.028 41.6229 112.102V113.812C41.474 113.738 41.1762 113.738 40.9528 113.738C39.6126 113.738 39.1659 114.704 39.1659 115.893V118.867H37.3789V112.251H37.4534Z" fill="#F5F3EB"/>
<path d="M42.2937 114.332C42.3681 112.622 43.9317 112.102 45.4209 112.102C46.7611 112.102 48.3247 112.399 48.3247 113.96V117.38C48.3247 117.974 48.3992 118.569 48.5481 118.866H46.6866C46.6122 118.643 46.5377 118.42 46.5377 118.197C45.9421 118.792 45.123 119.015 44.304 119.015C43.0383 119.015 42.0703 118.42 42.0703 117.008C42.0703 115.521 43.1872 115.149 44.304 115.001C45.4209 114.852 46.4633 114.852 46.4633 114.109C46.4633 113.365 45.9421 113.217 45.272 113.217C44.6018 113.217 44.1551 113.514 44.0807 114.183H42.2937V114.332ZM46.4633 115.67C46.1654 115.967 45.4953 115.967 44.9741 116.041C44.3785 116.19 43.9317 116.339 43.9317 117.008C43.9317 117.677 44.4529 117.826 45.0486 117.826C46.4633 117.826 46.5377 116.71 46.5377 116.339V115.67H46.4633Z" fill="#F5F3EB"/>
<path d="M51.9702 112.251H53.3105V113.44H51.9702V116.711C51.9702 117.305 52.1191 117.454 52.7148 117.454C52.9382 117.454 53.0871 117.454 53.3105 117.38V118.792C53.0126 118.867 52.6403 118.867 52.2681 118.867C51.1512 118.867 50.1833 118.644 50.1833 117.305V113.44H49.0664V112.251H50.1833V110.243H51.9702V112.251Z" fill="#F5F3EB"/>
<path d="M56.5138 111.21H54.7268V109.723H56.5138V111.21ZM54.6523 112.251H56.4393V118.867H54.6523V112.251Z" fill="#F5F3EB"/>
<path d="M61.1281 112.102C63.2129 112.102 64.5532 113.514 64.5532 115.595C64.5532 117.677 63.2129 119.089 61.1281 119.089C59.0433 119.089 57.7031 117.677 57.7031 115.595C57.7031 113.44 59.0433 112.102 61.1281 112.102ZM61.1281 117.677C62.3939 117.677 62.7662 116.636 62.7662 115.595C62.7662 114.555 62.3939 113.44 61.1281 113.44C59.9368 113.44 59.5645 114.48 59.5645 115.595C59.4901 116.636 59.8624 117.677 61.1281 117.677Z" fill="#F5F3EB"/>
<path d="M65.7461 112.251H67.4586V113.143H67.5331C67.9798 112.4 68.7988 112.028 69.5434 112.028C71.4793 112.028 71.926 113.143 71.926 114.778V118.867H70.139V115.15C70.139 114.035 69.8412 113.515 68.9477 113.515C67.9798 113.515 67.5331 114.035 67.5331 115.373V118.867H65.7461V112.251Z" fill="#F5F3EB"/>
</svg>
