<svg width="80" height="15" viewBox="0 0 80 15" fill="none" xmlns="http://www.w3.org/2000/svg">
<path d="M26.4343 7.36905H23.7326C23.6128 7.36905 23.516 7.46391 23.516 7.58119V8.45941C23.516 8.57669 23.6128 8.67156 23.7326 8.67156H24.9414C25.0666 8.67156 25.1688 8.77061 25.1688 8.89425V9.3249C25.1688 9.39316 25.1384 9.45925 25.0849 9.50176C24.8509 9.68715 24.5909 9.83755 24.3036 9.95584C23.9815 10.087 23.6399 10.1529 23.2775 10.1529C22.8956 10.1529 22.5366 10.0837 22.2014 9.94615C21.8663 9.80761 21.5725 9.61687 21.321 9.37277C21.0696 9.12983 20.8716 8.84841 20.727 8.52868C20.5823 8.20895 20.5104 7.86579 20.5104 7.49703C20.5104 7.13565 20.5821 6.79364 20.727 6.47492C20.8716 6.15519 21.0686 5.87595 21.321 5.63503C21.5725 5.39411 21.8661 5.20553 22.2014 5.06801C22.5366 4.92947 22.8956 4.8602 23.2787 4.8602C23.7411 4.8602 24.1612 4.94755 24.5366 5.12238C24.8489 5.26728 25.1351 5.49114 25.3962 5.79178C25.4843 5.89301 25.6421 5.89619 25.7368 5.80133L26.4571 5.08088C26.543 4.99556 26.5485 4.85601 26.4648 4.76867C26.097 4.38183 25.664 4.06731 25.1633 3.82219C24.5954 3.54613 23.9652 3.40759 23.2733 3.40759C22.6747 3.40759 22.1145 3.51518 21.5899 3.72834C21.0655 3.94251 20.6074 4.23346 20.2135 4.60236C19.8206 4.97112 19.5116 5.40379 19.2864 5.90053C19.0612 6.39828 18.9491 6.929 18.9491 7.49602C18.9491 8.07475 19.0634 8.61516 19.2919 9.11493C19.5205 9.61485 19.8295 10.0497 20.2189 10.4184C20.6085 10.7872 21.0655 11.076 21.59 11.2881C22.1145 11.4991 22.6749 11.6037 23.2734 11.6037C23.5759 11.6037 23.8795 11.5727 24.1852 11.5098C24.491 11.4469 24.7902 11.3499 25.0818 11.2189C25.3746 11.0867 25.6553 10.9215 25.9241 10.7201C26.1298 10.5667 26.4584 10.2277 26.6009 10.0785C26.6455 10.0305 26.6706 9.96871 26.6706 9.90479V7.60057C26.6706 7.47273 26.565 7.36934 26.4345 7.36934L26.4343 7.36905Z" fill="#9D9E9E"/>
<path d="M31.172 5.80341C30.9272 5.66805 30.677 5.60095 30.4213 5.60095C30.159 5.60095 29.9218 5.66704 29.7107 5.79921C29.4985 5.93037 29.3058 6.11793 29.1307 6.36189V5.97607C29.1307 5.85142 29.0274 5.75019 28.9001 5.75019H27.9099C27.7827 5.75019 27.6793 5.85142 27.6793 5.97607V11.2316C27.6793 11.3563 27.7827 11.4575 27.9099 11.4575H28.9001C29.0274 11.4575 29.1307 11.3563 29.1307 11.2316V8.23879C29.1307 8.00221 29.1644 7.80293 29.2319 7.64198C29.2994 7.48103 29.381 7.35103 29.4789 7.25182C29.5757 7.15277 29.6801 7.0835 29.7911 7.03968C29.9022 6.99702 30.0045 6.97576 30.0979 6.97576C30.2732 6.97576 30.4461 7.03332 30.617 7.14843C30.7139 7.2135 30.8053 7.28378 30.8924 7.36057C30.9979 7.45327 31.1622 7.42883 31.2384 7.31155L31.7628 6.49624C31.8206 6.40672 31.8086 6.28626 31.7302 6.21381C31.5529 6.04867 31.3667 5.91331 31.171 5.80558L31.172 5.80341Z" fill="#9D9E9E"/>
<path d="M37.4572 6.43969C37.1678 6.1765 36.8359 5.97072 36.4593 5.82264C36.0828 5.67456 35.6899 5.60095 35.2798 5.60095C34.85 5.60095 34.4462 5.67976 34.0698 5.83869C33.6933 5.99646 33.3636 6.21063 33.0818 6.48134C32.7999 6.75104 32.578 7.0686 32.4169 7.43418C32.2559 7.79975 32.1754 8.18875 32.1754 8.60451C32.1754 9.01911 32.2559 9.40927 32.4169 9.77484C32.578 10.1404 32.7979 10.458 33.0775 10.7277C33.3561 10.9984 33.6858 11.2115 34.0655 11.3703C34.4452 11.5269 34.8533 11.6069 35.2907 11.6069C35.7205 11.6069 36.1286 11.5462 36.516 11.4247C36.8282 11.3256 37.1459 11.1711 37.4691 10.9589C37.5909 10.8789 37.6106 10.7095 37.5072 10.6082L36.9273 10.0402C36.8489 9.96341 36.7271 9.9517 36.6357 10.0136C36.4898 10.1127 36.3212 10.1958 36.1286 10.2609C35.8664 10.3494 35.6042 10.3941 35.3418 10.3941C35.1264 10.3941 34.9305 10.3621 34.752 10.3002C34.5735 10.2373 34.4146 10.1521 34.2732 10.0434C34.1318 9.93579 34.0132 9.8068 33.9152 9.65858C33.8868 9.61591 33.8619 9.57325 33.8368 9.52958C33.7519 9.37615 33.8585 9.18859 34.037 9.18859H38.1403C38.2588 9.18859 38.3569 9.10125 38.3699 8.98614C38.3741 8.951 38.3775 8.91687 38.3808 8.88274C38.3905 8.78368 38.396 8.68882 38.396 8.59598C38.396 8.15477 38.3121 7.75189 38.1435 7.38631C37.976 7.02074 37.7464 6.70737 37.458 6.44418L37.4572 6.43969ZM36.5409 8.03836H34.0328C33.8566 8.03836 33.7467 7.85297 33.8294 7.70156C33.9447 7.49058 34.0981 7.31256 34.2918 7.16434C34.5889 6.9373 34.9262 6.82754 35.3016 6.8339C35.6542 6.84026 35.9916 6.97359 36.2777 7.17489C36.5127 7.34221 36.6586 7.54148 36.7467 7.70561C36.8272 7.85702 36.7151 8.03706 36.5411 8.03706L36.5409 8.03836Z" fill="#9D9E9E"/>
<path d="M44.3829 6.43969C44.0936 6.1765 43.7617 5.97072 43.3851 5.82264C43.0086 5.67456 42.6157 5.60095 42.2056 5.60095C41.7758 5.60095 41.372 5.67976 40.9955 5.83869C40.6191 5.99646 40.2894 6.21063 40.0075 6.48134C39.7257 6.75104 39.5038 7.0686 39.3427 7.43418C39.1817 7.79975 39.1012 8.18875 39.1012 8.60451C39.1012 9.01911 39.1817 9.40927 39.3427 9.77484C39.5038 10.1404 39.7236 10.458 40.0033 10.7277C40.2819 10.9984 40.6115 11.2115 40.9913 11.3703C41.371 11.5269 41.7791 11.6069 42.2165 11.6069C42.6463 11.6069 43.0543 11.5462 43.4418 11.4247C43.754 11.3256 44.0717 11.1711 44.3949 10.9589C44.5167 10.8789 44.5375 10.7095 44.433 10.6082L43.8531 10.0402C43.7747 9.96341 43.6529 9.9517 43.5615 10.0136C43.4156 10.1127 43.247 10.1958 43.0543 10.2609C42.7921 10.3494 42.5299 10.3941 42.2676 10.3941C42.0522 10.3941 41.8563 10.3621 41.6778 10.3002C41.4993 10.2373 41.3404 10.1521 41.199 10.0434C41.0575 9.93579 40.939 9.8068 40.841 9.65858C40.8126 9.61591 40.7865 9.57325 40.7626 9.52958C40.6766 9.37615 40.7843 9.18859 40.9628 9.18859H45.2707C45.2837 9.08418 45.2958 8.9818 45.3055 8.88274C45.3153 8.78368 45.3207 8.68882 45.3207 8.59598C45.3207 8.15477 45.2369 7.75189 45.0683 7.38631C44.9007 7.02074 44.6722 6.70737 44.3828 6.44418L44.3829 6.43969ZM43.4549 8.03836H40.9576C40.7791 8.03836 40.6725 7.8508 40.7564 7.69737C40.8674 7.49491 41.0153 7.32109 41.2003 7.17721C41.4289 6.99818 41.7041 6.8767 41.9946 6.8446C42.4146 6.79876 42.8782 6.89796 43.2024 7.17504C43.4233 7.36476 43.5637 7.54697 43.6518 7.69303C43.7432 7.84545 43.6344 8.03735 43.4539 8.03735L43.4549 8.03836Z" fill="#9D9E9E"/>
<path d="M51.3384 6.90433C51.2111 6.60166 51.0403 6.35437 50.8292 6.16363C50.617 5.97173 50.3755 5.83103 50.1034 5.73949C49.8313 5.64679 49.5474 5.60095 49.2514 5.60095C49.1164 5.60095 48.9772 5.61368 48.8324 5.64043C48.6877 5.66704 48.5463 5.70435 48.4091 5.75337C48.2709 5.80341 48.1382 5.86429 48.0108 5.93674C47.9303 5.98258 47.8574 6.03059 47.7932 6.08164C47.7551 6.11143 47.7202 6.14237 47.6886 6.17332L47.6843 5.9687C47.6811 5.84607 47.5788 5.74802 47.4537 5.74802H46.4592C46.332 5.74802 46.2286 5.84925 46.2286 5.9739V11.2295C46.2286 11.3541 46.332 11.4554 46.4592 11.4554H47.4495C47.5767 11.4554 47.6801 11.3541 47.6801 11.2295V7.40005C47.6801 7.33498 47.7072 7.27221 47.7573 7.22955C47.9119 7.10056 48.0815 7.00252 48.2665 6.93759C48.4819 6.86195 48.7017 6.82464 48.9248 6.82464C49.0727 6.82464 49.2164 6.84923 49.3546 6.89926C49.4928 6.94829 49.6157 7.02392 49.7246 7.1263C49.8323 7.22869 49.9183 7.35652 49.9825 7.51111C50.0467 7.66671 50.0783 7.84574 50.0783 8.04935V11.2298C50.0783 11.3544 50.1816 11.4556 50.3089 11.4556H51.2991C51.4264 11.4556 51.5297 11.3544 51.5297 11.2298V7.98008C51.5297 7.56548 51.4655 7.20743 51.3382 6.90461L51.3384 6.90433Z" fill="#9D9E9E"/>
<path d="M57.6887 7.88166C57.507 7.6834 57.272 7.50336 56.9836 7.33807C56.6942 7.17293 56.3482 7.02152 55.9456 6.88399C55.6301 6.77207 55.3657 6.66867 55.1545 6.57279C54.9424 6.47793 54.7726 6.38205 54.6453 6.28603C54.5181 6.19117 54.4267 6.09211 54.3732 5.98972C54.3199 5.8885 54.2928 5.7744 54.2928 5.64974C54.2928 5.53782 54.3211 5.43124 54.3787 5.329C54.4352 5.22662 54.5114 5.13826 54.605 5.06248C54.6986 4.98685 54.8117 4.92611 54.9424 4.87912C55.0729 4.83327 55.2155 4.80985 55.3711 4.80985C55.7073 4.80985 55.999 4.86104 56.2481 4.96328C56.4363 5.04007 56.6104 5.14346 56.7715 5.27029C56.8618 5.34173 56.9945 5.33319 57.0762 5.25221L57.839 4.49865C57.9369 4.40161 57.925 4.245 57.8162 4.15968C57.5353 3.93799 57.2253 3.76316 56.8837 3.63532C56.4604 3.47755 55.9392 3.39758 55.3211 3.39758C54.9511 3.39758 54.6072 3.45297 54.2873 3.56591C53.9686 3.67784 53.6888 3.83344 53.4505 4.03488C53.2122 4.23531 53.024 4.47724 52.8858 4.76068C52.7476 5.0431 52.6791 5.35329 52.6791 5.68792C52.6791 6.03745 52.7411 6.3391 52.8651 6.59709C52.9891 6.8529 53.1545 7.07676 53.3591 7.26851C53.5637 7.45925 53.802 7.62238 54.0752 7.75672C54.3472 7.89106 54.6312 8.01253 54.9272 8.11694C55.2633 8.23625 55.5387 8.34282 55.7541 8.43769C55.9695 8.53356 56.1371 8.6264 56.2578 8.7191C56.3786 8.8118 56.4625 8.90666 56.5103 9.00586C56.5571 9.10492 56.581 9.21685 56.581 9.34165C56.581 9.45994 56.5527 9.56869 56.4951 9.66673C56.4374 9.76579 56.3601 9.85111 56.2633 9.92356C56.1654 9.99601 56.0522 10.0536 55.9205 10.0962C55.79 10.1389 55.6496 10.1601 55.5027 10.1601C55.1392 10.1601 54.803 10.1058 54.494 9.99702C54.2361 9.9065 53.9739 9.76261 53.7072 9.56435C53.6136 9.49508 53.4842 9.50043 53.4015 9.58141L52.6202 10.3541C52.5211 10.4521 52.5353 10.6131 52.6473 10.6962C52.8149 10.8199 52.9782 10.9286 53.1371 11.0235C53.3624 11.1588 53.5974 11.2686 53.8422 11.3549C54.087 11.4402 54.3493 11.503 54.6289 11.5425C54.9075 11.582 55.222 11.601 55.5713 11.601C55.9609 11.601 56.3167 11.5403 56.6399 11.4188C56.9621 11.2962 57.2417 11.1342 57.4767 10.9296C57.7118 10.726 57.8945 10.4904 58.0262 10.2241C58.1568 9.95754 58.2232 9.67628 58.2232 9.37997C58.2232 9.07094 58.1796 8.79271 58.0927 8.54542C58.0056 8.29915 57.8706 8.07645 57.689 7.87935L57.6887 7.88166Z" fill="black"/>
<path d="M62.0793 10.2371C62.0422 10.2498 62.0031 10.2617 61.9628 10.2712C61.8017 10.3107 61.6635 10.3309 61.5493 10.3309C61.4621 10.3309 61.3795 10.3214 61.3023 10.3012C61.225 10.2809 61.1564 10.2458 61.0956 10.1924C61.0346 10.1402 60.9868 10.0678 60.9497 9.97492C60.9126 9.88324 60.8942 9.76393 60.8942 9.62004V7.0227H62.1346C62.2619 7.0227 62.3653 6.92147 62.3653 6.79682V5.96661C62.3653 5.84195 62.2619 5.74073 62.1346 5.74073H60.8942V4.29766C60.8942 4.173 60.7908 4.07178 60.6636 4.07178H60.6091C60.4993 4.07178 60.4067 4.14958 60.3838 4.25399C60.2706 4.76981 60.0823 5.19612 59.8201 5.53292C59.5567 5.87073 59.2206 6.13508 58.8125 6.32379C58.7308 6.3611 58.6765 6.43992 58.6765 6.52842V6.79812C58.6765 6.92277 58.7799 7.024 58.9071 7.024H59.4425V9.52229C59.4425 9.87832 59.4741 10.1884 59.5383 10.4505C59.6025 10.7137 59.7048 10.9302 59.8463 11.1017C59.9877 11.2734 60.1749 11.399 60.411 11.4822C60.646 11.5643 60.9354 11.6058 61.2782 11.6058C61.4729 11.6058 61.6678 11.5824 61.8625 11.5366C61.9768 11.51 62.1346 11.4427 62.2445 11.3927C62.3249 11.3554 62.3762 11.2754 62.3762 11.1881V10.4547C62.3762 10.3033 62.225 10.1872 62.0791 10.2384L62.0793 10.2371Z" fill="black"/>
<path d="M68.3445 6.46519C68.0627 6.19766 67.7308 5.98769 67.3521 5.8331C66.9724 5.67851 66.5676 5.60071 66.1366 5.60071C65.7133 5.60071 65.314 5.67851 64.9375 5.8331C64.561 5.98769 64.2324 6.20185 63.9495 6.47575C63.6677 6.74863 63.4435 7.06836 63.2792 7.43393C63.1149 7.79951 63.0322 8.18851 63.0322 8.60427C63.0322 9.02523 63.1127 9.41857 63.2738 9.78414C63.4348 10.1497 63.6567 10.4673 63.9386 10.737C64.2204 11.0077 64.5501 11.2198 64.9266 11.3733C65.303 11.5279 65.7067 11.6057 66.1366 11.6057C66.5664 11.6057 66.9722 11.5279 67.3521 11.3733C67.7318 11.2198 68.0627 11.0077 68.3445 10.7412C68.6274 10.4736 68.8483 10.1581 69.0094 9.79369C69.1704 9.42811 69.2521 9.03159 69.2521 8.60311C69.2521 8.18215 69.1716 7.78664 69.0094 7.41788C68.8483 7.04913 68.6264 6.73156 68.3445 6.46504V6.46519ZM67.67 9.28422C67.5829 9.49521 67.4643 9.67858 67.3131 9.83635C67.162 9.99412 66.9867 10.1178 66.7853 10.2061C66.5841 10.2946 66.3697 10.3393 66.1422 10.3393C65.9149 10.3393 65.7005 10.2956 65.4991 10.2061C65.2979 10.1166 65.1216 9.99397 64.9713 9.83635C64.8201 9.67858 64.7014 9.4942 64.6145 9.28422C64.5274 9.07425 64.484 8.8462 64.484 8.60311C64.484 8.35901 64.5275 8.13197 64.6145 7.92199C64.7016 7.71101 64.8201 7.52663 64.9713 7.36987C65.1215 7.2121 65.2977 7.08745 65.4991 7.0001C65.7003 6.91059 65.9147 6.86576 66.1422 6.86576C66.3696 6.86576 66.584 6.91059 66.7853 7.0001C66.9866 7.0886 67.1618 7.21225 67.3131 7.36987C67.4643 7.52648 67.583 7.71202 67.67 7.92199C67.7571 8.13298 67.8005 8.36002 67.8005 8.60311C67.8005 8.84721 67.7569 9.07425 67.67 9.28422Z" fill="black"/>
<path d="M73.6523 5.80328C73.4076 5.66793 73.1561 5.60083 72.9016 5.60083C72.6394 5.60083 72.4032 5.66692 72.191 5.79909C71.9789 5.93025 71.7862 6.11781 71.6111 6.36177V5.97595C71.6111 5.8513 71.5077 5.75007 71.3805 5.75007H70.3903C70.263 5.75007 70.1597 5.8513 70.1597 5.97595V11.2315C70.1597 11.3562 70.263 11.4574 70.3903 11.4574H71.3805C71.5077 11.4574 71.6111 11.3562 71.6111 11.2315V8.23867C71.6111 8.00208 71.6448 7.80281 71.7122 7.64186C71.7797 7.48091 71.8613 7.3509 71.9592 7.2517C72.0561 7.15264 72.1605 7.08338 72.2715 7.03956C72.3825 6.9969 72.4848 6.97564 72.5795 6.97564C72.7547 6.97564 72.9276 7.0332 73.0985 7.14831C73.1954 7.21338 73.2868 7.28366 73.3739 7.36045C73.4795 7.45314 73.6438 7.4287 73.72 7.31143L74.2444 6.49611C74.3021 6.4066 74.2901 6.28614 74.2117 6.21369C74.0344 6.04854 73.8483 5.91319 73.6525 5.80545L73.6523 5.80328Z" fill="black"/>
<path d="M79.6654 5.73946H78.8265C78.6828 5.73946 78.5556 5.82897 78.5098 5.96216L77.4217 9.13506C77.3901 9.22558 77.2596 9.22674 77.227 9.13723L76.0659 5.9558C76.0181 5.82579 75.8929 5.7383 75.7515 5.7383H74.8919C74.6569 5.7383 74.4958 5.96852 74.5807 6.18385L76.6089 11.3339C76.6373 11.4063 76.6383 11.4853 76.6132 11.5587L76.4511 12.0192C76.35 12.2952 76.2063 12.4838 76.0181 12.5862C75.8299 12.6886 75.6209 12.7396 75.3924 12.7396C75.2846 12.7396 75.1704 12.7247 75.0496 12.6959C74.9799 12.6789 74.9104 12.6608 74.8429 12.633C74.7112 12.5777 74.7351 12.6789 74.7613 12.7503C74.7776 12.7951 74.9397 13.2385 75.0573 13.5603C75.1258 13.749 75.2433 13.9034 75.4109 13.9397C75.4903 13.9568 75.5654 13.9536 75.6329 13.9536C76.0692 13.9536 76.4458 13.8417 76.7623 13.6178C77.0778 13.394 77.3336 13.0284 77.5284 12.5221L79.9778 6.18153C80.0604 5.96737 79.8994 5.73816 79.6655 5.73816L79.6654 5.73946Z" fill="black"/>
<path d="M13.0463 3.1197C12.9679 3.12823 12.8864 3.12606 12.8035 3.11218C12.4173 3.0471 12.1136 2.73489 12.069 2.35326C12.0603 2.27864 12.0614 2.20619 12.0713 2.13577C12.0854 2.03136 12.0354 1.92898 11.9483 1.86723C11.5718 1.59869 11.1769 1.36731 10.7688 1.17657C10.7285 1.15734 10.6807 1.17021 10.6535 1.20535C10.4391 1.49211 10.0517 1.64655 9.64158 1.51655C9.28031 1.40245 9.04527 1.06146 9.04527 0.690533C9.04527 0.644692 9.01264 0.605213 8.96687 0.596681C6.52287 0.137254 3.89831 0.886625 2.08236 2.80618C-0.717443 5.76491 -0.538949 10.2872 2.47951 13.0306L2.47848 13.0316C2.88537 13.4003 3.32178 13.7159 3.78094 13.9791C4.4273 13.4494 5.08458 12.9345 5.74615 12.4241C5.74511 12.2929 5.77656 12.1619 5.85171 12.0607C6.05087 11.791 6.25653 11.5256 6.46544 11.2624C7.51869 9.93649 8.70909 8.72046 9.95826 7.57037C10.5665 7.01087 11.1977 6.47582 11.7961 5.90562C12.3466 5.37909 12.8973 4.84938 13.5143 4.39849C13.5752 4.19921 13.721 4.03291 13.9104 3.94123C13.7645 3.71101 13.6046 3.48715 13.4306 3.27082C13.3392 3.15672 13.1933 3.10451 13.0464 3.12057L13.0463 3.1197Z" fill="white"/>
<path d="M14.8515 6.31814C14.8189 6.16037 14.6904 6.03672 14.5283 6.00693C14.4641 5.99522 14.4031 5.97917 14.363 5.96109C14.0594 5.82256 13.8493 5.5209 13.8493 5.17138C13.8493 4.9763 13.9245 4.79307 14.0398 4.64702C14.1388 4.52236 14.1508 4.3497 14.0714 4.21217C13.8886 3.89244 13.6785 3.58442 13.4435 3.28913C13.3477 3.16982 13.1954 3.10258 13.0409 3.1208C13.0104 3.12398 12.9799 3.12615 12.9517 3.12615C12.8712 3.12615 12.7918 3.11545 12.7177 3.0952C12.5142 3.04083 12.3053 3.15493 12.2466 3.35319L11.9451 4.39019C11.9309 4.44023 11.8417 4.60233 11.7459 4.63314C11.7253 4.6395 11.7046 4.64066 11.685 4.63632C11.5533 4.60855 11.4173 4.65555 11.3541 4.77167C10.3835 6.55371 8.5946 8.5755 6.91994 10.0975C5.72407 11.1836 4.13756 12.2356 2.83288 13.0211C2.69897 13.1011 2.68819 13.2876 2.81221 13.3813C5.86005 15.6738 10.3649 15.5801 13.0091 12.7855C14.7164 10.9811 15.3192 8.5596 14.8491 6.3203L14.8515 6.31814Z" fill="black"/>
<path d="M2.22238 12.7534C2.22168 12.7534 2.22168 12.7541 2.22168 12.7541L2.22238 12.7534Z" fill="#80C141"/>
<path d="M2.22238 12.7534C2.22168 12.7534 2.22168 12.7541 2.22168 12.7541L2.22238 12.7534Z" fill="#80C141"/>
<path d="M10.6393 0.690659C10.6393 1.07229 10.3238 1.38132 9.93522 1.38132C9.54561 1.38132 9.2301 1.07229 9.2301 0.690659C9.2301 0.309032 9.54561 0 9.93522 0C10.3248 0 10.6393 0.309032 10.6393 0.690659Z" fill="#9D9E9E"/>
<path d="M13.6568 2.25206C13.6568 2.63369 13.3413 2.94272 12.9517 2.94272C12.5621 2.94272 12.2466 2.63369 12.2466 2.25206C12.2466 1.87043 12.5621 1.5614 12.9517 1.5614C13.3413 1.5614 13.6568 1.87043 13.6568 2.25206Z" fill="#9D9E9E"/>
<path d="M15.4445 5.17027C15.4445 5.5519 15.129 5.85992 14.7394 5.85992C14.3498 5.85992 14.0343 5.55089 14.0343 5.17027C14.0343 4.78865 14.3498 4.47961 14.7394 4.47961C15.129 4.47961 15.4445 4.78865 15.4445 5.17027Z" fill="#9D9E9E"/>
<path d="M2.19543 12.2665C2.19543 12.2665 3.21281 11.5822 3.72319 11.2956V9.12554C3.72319 8.91137 3.54588 8.73755 3.32708 8.73755H2.59258C2.37393 8.73755 2.19647 8.91123 2.19647 9.12554V12.113V12.2665H2.19543Z" fill="#9D9E9E"/>
<path d="M5.63721 10.202C5.63721 10.202 6.43475 9.36212 6.97126 8.97211C7.09307 8.88259 7.16496 8.74189 7.16496 8.59265V5.92068C7.16496 5.65749 6.94735 5.44434 6.67865 5.44434H6.12367C5.85497 5.44434 5.63735 5.65749 5.63735 5.92068V10.0496V10.203L5.63721 10.202Z" fill="#9D9E9E"/>
<path d="M8.92017 7.1591C8.92017 7.1591 10.1639 5.62117 10.4479 5.16926V3.75916C10.4479 3.51622 10.2467 3.31897 9.99851 3.31897H9.36958C9.12154 3.31897 8.92017 3.51607 8.92017 3.75916V7.00567V7.1591Z" fill="#9D9E9E"/>
<path d="M12.0758 2.82123L10.72 3.64826C10.6525 3.69309 10.6787 3.79533 10.7591 3.80386L10.9767 3.82627C11.03 3.83162 11.0813 3.84334 11.1313 3.8604C11.1771 3.87645 11.1944 3.93068 11.1672 3.97016C10.4872 4.96349 8.22167 7.89228 4.36418 10.8084C3.75813 11.2666 3.07471 11.7036 2.34686 12.1246C2.25768 12.1758 2.14341 12.1576 2.07476 12.0819C1.9943 11.9924 1.89745 11.8805 1.85271 11.8239C0.96039 10.7028 0.49474 9.34808 0.438195 7.91557C0.367476 6.11748 1.02801 4.44636 2.29666 3.10452C3.5665 1.76268 5.23466 0.927126 7.1008 0.857857C7.29996 0.850337 7.49691 0.851494 7.69386 0.860026C7.77772 0.863208 7.85715 0.822717 7.89731 0.751279C7.92241 0.708619 7.95061 0.658584 7.97895 0.611586C8.03225 0.52106 7.96803 0.406962 7.8604 0.402624C7.66345 0.395104 7.4665 0.395104 7.26734 0.401612C5.25651 0.47623 3.39686 1.31396 2.02914 2.75919C0.661423 4.20443 -0.0491582 6.06744 0.0270229 8.00508C0.0879974 9.56441 0.654927 11.0363 1.64292 12.2503C1.72338 12.3493 1.694 12.4954 1.58091 12.5561C1.14346 12.7927 0.688589 13.0261 0.21969 13.2585C0.0097493 13.3619 -0.0631839 13.6199 0.060832 13.816C0.0695427 13.8298 0.0782533 13.8426 0.0859305 13.8564C0.196954 14.0291 0.423283 14.0888 0.607093 13.994C1.61354 13.4738 4.7442 11.7376 6.76153 9.90555C8.55917 8.2716 10.4894 6.06007 11.3969 4.18852C11.422 4.13516 11.4981 4.12996 11.5296 4.17999C11.5471 4.20776 11.5623 4.23755 11.5754 4.26849L11.6352 4.4092C11.6668 4.48382 11.7766 4.47745 11.7995 4.39965L12.2064 2.91711C12.2281 2.84032 12.1412 2.77857 12.0737 2.82326L12.0758 2.82123Z" fill="black"/>
<path d="M6.92227 10.0954C5.79387 11.1207 4.31616 12.1162 3.05725 12.8847C5.37059 13.9963 7.77325 13.5071 8.49682 13.1139C8.6046 13.0553 8.57079 12.8954 8.44781 12.8826C8.02556 12.8378 7.39234 12.6961 7.32044 12.2559C7.2106 11.5876 8.07458 12.1205 9.36715 11.8252C10.6587 11.5299 11.2169 9.76613 11.4564 8.4765C11.7763 6.75202 11.5652 5.35479 11.4106 4.67151C10.452 6.47697 8.62822 8.54678 6.92433 10.0954H6.92227Z" fill="#9D9E9E"/>
</svg>
