<svg width="10" height="16" viewBox="0 0 10 16" fill="none" xmlns="http://www.w3.org/2000/svg">
<path fill-rule="evenodd" clip-rule="evenodd" d="M4.66905 2.01965C6.29606 1.90292 8.15208 2.32282 9.09559 2.84191C9.33753 2.97502 9.42576 3.27907 9.29265 3.52101C9.15954 3.76295 8.8555 3.85118 8.61355 3.71806C7.86306 3.30516 6.20459 2.91206 4.7406 3.01708C4.01279 3.0693 3.39582 3.24096 2.97378 3.53856C2.57857 3.81726 2.32557 4.22353 2.32557 4.86099C2.32557 5.63687 2.65214 6.13107 3.17982 6.51797C3.74133 6.92967 4.51154 7.2047 5.3712 7.49128C5.42908 7.51057 5.48746 7.52994 5.54621 7.54944C6.32109 7.80656 7.16148 8.08543 7.81283 8.50519C8.54892 8.97956 9.10057 9.67083 9.10057 10.732C9.10057 11.6972 8.782 12.4544 8.20897 12.9965C7.64917 13.526 6.89402 13.8053 6.09325 13.9255C4.49931 14.1646 2.5477 13.8003 0.978903 13.2343C0.719146 13.1406 0.584535 12.8541 0.678242 12.5943C0.771949 12.3346 1.05849 12.2 1.31824 12.2937C2.80145 12.8287 4.57584 13.1419 5.9449 12.9365C6.62563 12.8344 7.16123 12.611 7.5218 12.27C7.86914 11.9414 8.10057 11.4603 8.10057 10.732C8.10057 10.0996 7.80535 9.69004 7.27113 9.34576C6.73105 8.9977 6.00697 8.75677 5.1897 8.48482C5.14505 8.46996 5.10013 8.45501 5.05495 8.43995C4.22085 8.1619 3.29732 7.84412 2.58852 7.32442C1.84588 6.77991 1.32557 6.00411 1.32557 4.86099C1.32557 3.89495 1.73945 3.18535 2.39749 2.72132C3.0287 2.27621 3.85136 2.07831 4.66905 2.01965Z" fill="white"/>
<path fill-rule="evenodd" clip-rule="evenodd" d="M5.5 0C5.77614 0 6 0.223858 6 0.5V15.5C6 15.7761 5.77614 16 5.5 16C5.22386 16 5 15.7761 5 15.5V0.5C5 0.223858 5.22386 0 5.5 0Z" fill="white"/>
</svg>
