<svg width="17" height="17" viewBox="0 0 17 17" fill="none" xmlns="http://www.w3.org/2000/svg">
<path d="M7.916 9.51198V10.052H8.888V9.58398C8.888 8.91198 9.092 8.39598 9.692 7.91598C10.448 7.32798 10.88 6.87198 10.88 5.94798C10.88 4.74798 10.088 3.97998 8.732 3.97998C7.088 3.97998 6.536 5.19198 6.5 6.12798H7.472C7.532 5.55198 7.868 4.89198 8.732 4.89198C9.512 4.89198 9.896 5.34798 9.896 5.98398C9.896 6.57198 9.632 6.84798 8.924 7.39998C8.084 8.05998 7.916 8.69598 7.916 9.51198ZM8.456 12.56C8.876 12.56 9.224 12.2 9.224 11.792C9.224 11.348 8.876 11 8.456 11C8.024 11 7.664 11.348 7.664 11.792C7.664 12.2 8.024 12.56 8.456 12.56Z" fill="white"/>
<path d="M8.5 16C12.6421 16 16 12.6421 16 8.5C16 4.35786 12.6421 1 8.5 1C4.35786 1 1 4.35786 1 8.5C1 12.6421 4.35786 16 8.5 16Z" stroke="white" stroke-linecap="round" stroke-linejoin="round"/>
</svg>
