<svg width="21" height="13" viewBox="0 0 21 13" fill="none" xmlns="http://www.w3.org/2000/svg">
<path d="M6.53027 0.179688V5.49707C6.52669 6.2347 6.29395 6.83805 5.83203 7.30713C5.3737 7.7762 4.75065 8.03939 3.96289 8.09668L3.68896 8.10742C2.83317 8.10742 2.15104 7.87646 1.64258 7.41455C1.13411 6.95264 0.876302 6.31706 0.869141 5.50781V0.179688H1.88965V5.47559C1.88965 6.04134 2.04541 6.48177 2.35693 6.79688C2.66846 7.1084 3.11247 7.26416 3.68896 7.26416C4.27262 7.26416 4.71842 7.1084 5.02637 6.79688C5.33789 6.48535 5.49365 6.04671 5.49365 5.48096V0.179688H6.53027ZM10.4619 4.51416C9.57747 4.25993 8.93294 3.9484 8.52832 3.57959C8.12728 3.20719 7.92676 2.74886 7.92676 2.20459C7.92676 1.5887 8.17204 1.08024 8.6626 0.679199C9.15674 0.274577 9.79769 0.0722656 10.5854 0.0722656C11.1226 0.0722656 11.6006 0.176107 12.0195 0.383789C12.4421 0.591471 12.7679 0.87793 12.9971 1.24316C13.2298 1.6084 13.3462 2.00765 13.3462 2.44092H12.3096C12.3096 1.96826 12.1592 1.59766 11.8584 1.3291C11.5576 1.05697 11.1333 0.920898 10.5854 0.920898C10.077 0.920898 9.67952 1.03369 9.39307 1.25928C9.11019 1.48128 8.96875 1.79102 8.96875 2.18848C8.96875 2.50716 9.10303 2.77751 9.37158 2.99951C9.64372 3.21794 10.1038 3.41846 10.752 3.60107C11.4036 3.78369 11.9121 3.986 12.2773 4.20801C12.6462 4.42643 12.9183 4.68245 13.0938 4.97607C13.2728 5.26969 13.3623 5.61523 13.3623 6.0127C13.3623 6.64648 13.1152 7.15495 12.6211 7.53809C12.127 7.91764 11.4663 8.10742 10.6392 8.10742C10.1021 8.10742 9.60075 8.00537 9.13525 7.80127C8.66976 7.59359 8.3099 7.31071 8.05566 6.95264C7.80501 6.59456 7.67969 6.18815 7.67969 5.7334H8.71631C8.71631 6.20605 8.88997 6.58024 9.2373 6.85596C9.58822 7.12809 10.0555 7.26416 10.6392 7.26416C11.1834 7.26416 11.6006 7.15316 11.8906 6.93115C12.1807 6.70915 12.3257 6.40658 12.3257 6.02344C12.3257 5.6403 12.1914 5.34489 11.9229 5.13721C11.6543 4.92594 11.1673 4.71826 10.4619 4.51416ZM14.689 8V0.179688H16.8965C17.5768 0.179688 18.1784 0.330078 18.7012 0.630859C19.224 0.931641 19.6268 1.35954 19.9097 1.91455C20.1961 2.46956 20.3411 3.10693 20.3447 3.82666V4.32617C20.3447 5.0638 20.2015 5.71012 19.915 6.26514C19.6322 6.82015 19.2257 7.24626 18.6958 7.54346C18.1694 7.84066 17.5553 7.99284 16.8535 8H14.689ZM15.7202 1.02832V7.15674H16.8052C17.6001 7.15674 18.2178 6.90967 18.6582 6.41553C19.1022 5.92139 19.3242 5.21777 19.3242 4.30469V3.84814C19.3242 2.96012 19.1147 2.27083 18.6958 1.78027C18.2804 1.28613 17.6896 1.03548 16.9233 1.02832H15.7202Z" fill="white"/>
</svg>
