<svg width="81" height="32" viewBox="0 0 81 32" fill="none" xmlns="http://www.w3.org/2000/svg">
<path d="M18.3886 18.5092C18.3886 12.9652 15.0049 10.1494 9.74557 10.1494C3.77657 10.1494 1.6475 13.7661 1.06454 16.2816L5.85494 17.6206C6.14642 16.1564 7.17294 14.517 9.63151 14.517C11.6212 14.517 13.0152 15.6058 13.0152 17.7959V18.9347H8.60499C3.18093 18.9347 0 21.8756 0 25.7802C0 29.2718 2.45857 32 7.07156 32C10.544 32 12.7491 30.4482 13.9784 28.6461L14.7007 31.587H19.7446L18.3886 25.0794V18.5092ZM13.0025 23.3899C13.0025 25.58 10.8861 27.5448 8.42757 27.5448C6.60265 27.5448 5.71554 26.6688 5.71554 25.3547C5.71554 23.8029 7.16027 22.589 9.18795 22.589H13.0025V23.3899ZM23.2804 31.5745H28.9959V10.5749H23.2804V31.5745ZM51.9975 31.5745H57.713V0.287837H51.9975V31.5745ZM26.1572 0C24.0914 0 22.482 1.52679 22.482 3.64177C22.482 5.75675 24.0914 7.25851 26.1572 7.25851C28.2229 7.25851 29.807 5.75675 29.807 3.64177C29.807 1.52679 28.2229 0 26.1572 0ZM71.4379 10.1494C65.3422 10.1494 61.2741 14.7298 61.2741 21.1998C61.2741 27.7075 65.4689 32 71.6153 32C75.4679 32 78.8136 30.2354 80.3851 27.5448L76.1523 25.0669C75.3919 26.1557 74.0359 27.2569 71.8308 27.2569C69.1188 27.2569 67.2558 25.8303 66.7489 22.9269H80.854C81.7791 15.4932 78.2687 10.1494 71.4379 10.1494ZM66.7742 18.9347C67.3192 16.3316 69.0174 14.8549 71.4379 14.8549C74.2767 14.8549 75.7974 16.8698 75.7974 18.9347H66.7742ZM40.8959 14.4419C42.3786 14.4419 43.5192 15.2804 44.0768 17.0825L48.6138 15.8686C48.1069 12.3395 44.9259 10.1619 40.9846 10.1619C36.8279 10.1619 33.4061 12.5147 33.4061 16.5068C33.4061 19.4853 35.2311 21.3 38.7922 22.6766C40.8199 23.5151 42.7715 24.1032 42.7715 25.7051C42.7715 26.844 41.707 27.5072 40.2749 27.5072C38.412 27.5072 37.2714 26.4185 36.7518 24.5287L31.9234 25.8303C32.8105 29.9476 35.9914 32 40.5284 32C44.5077 32 48.1576 29.86 48.1576 25.8678C48.1576 22.176 46.0412 20.4114 41.669 18.8095C39.844 18.1338 38.7035 17.6332 38.7035 16.3316C38.6908 15.1553 39.5906 14.4419 40.8959 14.4419Z" fill="#0B4D3C"/>
</svg>
